<?xml version="1.0" encoding="UTF-8"?>
<svg id="Layer_2" data-name="Layer 2" xmlns="http://www.w3.org/2000/svg" viewBox="0 0 280 77">
  <defs>
    <style>
      .cls-1 {
        fill: #84ad82;
      }

      .cls-1, .cls-2 {
        stroke-width: 0px;
      }

      .cls-2 {
        fill: #000;
      }
    </style>
  </defs>
  <g id="Layer_1-2" data-name="Layer 1">
    <g>
      <rect class="cls-1" width="280" height="77" rx="15" ry="15"/>
      <path class="cls-2" d="M41.47,48.9c-.44.17-.86.12-1.23-.16-.38-.28-.57-.68-.57-1.18,0-.24.07-.45.22-.64.14-.19.33-.32.55-.41,1.78-.7,3.21-1.81,4.28-3.34,1.08-1.53,1.62-3.25,1.62-5.17s-.54-3.64-1.62-5.17c-1.08-1.53-2.51-2.64-4.28-3.34-.24-.09-.43-.23-.57-.43-.13-.2-.2-.41-.2-.65,0-.48.19-.86.57-1.15.38-.28.79-.34,1.23-.16,2.27.89,4.09,2.32,5.47,4.29,1.38,1.96,2.07,4.17,2.07,6.61s-.69,4.65-2.07,6.61c-1.38,1.96-3.2,3.39-5.47,4.29ZM26.33,41.96c-.38,0-.69-.13-.95-.38-.26-.25-.38-.56-.38-.93v-5.24c0-.37.13-.68.38-.93.26-.25.57-.38.95-.38h4l4.4-4.32c.42-.41.91-.51,1.45-.28.54.23.82.64.82,1.23v14.6c0,.59-.27,1-.82,1.23-.54.23-1.03.14-1.45-.28l-4.4-4.32h-4ZM39.67,43.27v-10.54c1,.46,1.81,1.17,2.42,2.13.61.96.92,2.02.92,3.18s-.31,2.2-.92,3.14c-.61.94-1.42,1.64-2.42,2.1Z"/>
      <path class="cls-2" d="M72.04,31l6.4-14h1.46l6.4,14h-1.56l-5.88-13.14h.6l-5.88,13.14h-1.54ZM74.56,27.26l.44-1.2h8.14l.44,1.2h-9.02ZM93.74,31.1c-.91,0-1.73-.21-2.46-.62-.73-.43-1.32-1.03-1.76-1.82-.43-.8-.64-1.77-.64-2.92s.21-2.11.64-2.9c.43-.8,1.01-1.41,1.74-1.82.73-.41,1.56-.62,2.48-.62,1,0,1.89.23,2.68.68.8.44,1.43,1.07,1.88,1.88.45.8.68,1.73.68,2.78s-.23,2-.68,2.8c-.45.8-1.08,1.43-1.88,1.88-.79.45-1.68.68-2.68.68ZM88.32,34.88v-14.38h1.36v3.16l-.14,2.1.2,2.12v7h-1.42ZM93.64,29.84c.75,0,1.41-.17,2-.5.59-.35,1.05-.83,1.4-1.44.35-.63.52-1.35.52-2.16s-.17-1.53-.52-2.14c-.35-.61-.81-1.09-1.4-1.44-.59-.35-1.25-.52-2-.52s-1.42.17-2.02.52c-.59.35-1.05.83-1.4,1.44-.33.61-.5,1.33-.5,2.14s.17,1.53.5,2.16c.35.61.81,1.09,1.4,1.44.6.33,1.27.5,2.02.5ZM101.87,31v-10.5h1.36v2.86l-.14-.5c.29-.8.79-1.41,1.48-1.82.69-.43,1.55-.64,2.58-.64v1.38h-.16c-.05-.01-.11-.02-.16-.02-1.11,0-1.97.34-2.6,1.02-.63.67-.94,1.62-.94,2.86v5.36h-1.42ZM113.92,31.1c-1.01,0-1.93-.23-2.74-.68-.8-.47-1.43-1.1-1.9-1.9-.47-.81-.7-1.74-.7-2.78s.23-1.98.7-2.78c.47-.8,1.1-1.43,1.9-1.88.8-.45,1.71-.68,2.74-.68s1.96.23,2.76.68c.81.45,1.45,1.08,1.9,1.88.47.8.7,1.73.7,2.78s-.23,1.97-.7,2.78c-.45.8-1.09,1.43-1.9,1.9-.81.45-1.73.68-2.76.68ZM113.92,29.84c.76,0,1.43-.17,2.02-.5.59-.35,1.05-.83,1.38-1.44.35-.63.52-1.35.52-2.16s-.17-1.55-.52-2.16c-.33-.61-.79-1.09-1.38-1.42-.59-.35-1.25-.52-2-.52s-1.41.17-2,.52c-.59.33-1.05.81-1.4,1.42s-.52,1.33-.52,2.16.17,1.53.52,2.16c.35.61.81,1.09,1.4,1.44.59.33,1.25.5,1.98.5ZM120.21,31l4.44-5.76-.02.7-4.22-5.44h1.6l3.46,4.5-.6-.02,3.46-4.48h1.56l-4.26,5.5.02-.76,4.48,5.76h-1.62l-3.66-4.8.56.08-3.6,4.72h-1.6ZM132.5,31v-10.5h1.42v10.5h-1.42ZM133.22,18.18c-.29,0-.54-.1-.74-.3-.2-.2-.3-.44-.3-.72s.1-.51.3-.7c.2-.2.45-.3.74-.3s.54.09.74.28c.2.19.3.42.3.7s-.1.54-.3.74c-.19.2-.43.3-.74.3ZM150.99,20.4c.85,0,1.59.17,2.22.5.64.32,1.13.81,1.48,1.48.36.67.54,1.51.54,2.52v6.1h-1.42v-5.96c0-1.11-.27-1.94-.8-2.5-.52-.57-1.26-.86-2.22-.86-.72,0-1.35.15-1.88.46-.52.29-.93.73-1.22,1.3-.28.56-.42,1.24-.42,2.04v5.52h-1.42v-5.96c0-1.11-.27-1.94-.8-2.5-.53-.57-1.28-.86-2.24-.86-.71,0-1.33.15-1.86.46-.53.29-.95.73-1.24,1.3-.28.56-.42,1.24-.42,2.04v5.52h-1.42v-10.5h1.36v2.84l-.22-.5c.32-.76.83-1.35,1.54-1.78.72-.44,1.57-.66,2.54-.66,1.03,0,1.9.26,2.62.78.72.51,1.19,1.27,1.4,2.3l-.56-.22c.31-.85.85-1.54,1.62-2.06.79-.53,1.73-.8,2.82-.8ZM165.66,31v-2.32l-.06-.38v-3.88c0-.89-.25-1.58-.76-2.06-.49-.48-1.23-.72-2.22-.72-.68,0-1.33.11-1.94.34-.61.23-1.13.53-1.56.9l-.64-1.06c.53-.45,1.17-.8,1.92-1.04.75-.25,1.53-.38,2.36-.38,1.36,0,2.41.34,3.14,1.02.75.67,1.12,1.69,1.12,3.06v6.52h-1.36ZM162.04,31.1c-.79,0-1.47-.13-2.06-.38-.57-.27-1.01-.63-1.32-1.08-.31-.47-.46-1-.46-1.6,0-.55.13-1.04.38-1.48.27-.45.69-.81,1.28-1.08.6-.28,1.4-.42,2.4-.42h3.62v1.06h-3.58c-1.01,0-1.72.18-2.12.54-.39.36-.58.81-.58,1.34,0,.6.23,1.08.7,1.44.47.36,1.12.54,1.96.54s1.49-.18,2.06-.54c.59-.37,1.01-.91,1.28-1.6l.32.98c-.27.69-.73,1.25-1.4,1.66-.65.41-1.48.62-2.48.62ZM176.24,20.4c.85,0,1.6.17,2.24.5.65.32,1.16.81,1.52,1.48.37.67.56,1.51.56,2.52v6.1h-1.42v-5.96c0-1.11-.28-1.94-.84-2.5-.55-.57-1.32-.86-2.32-.86-.75,0-1.4.15-1.96.46-.55.29-.97.73-1.28,1.3-.29.56-.44,1.24-.44,2.04v5.52h-1.42v-10.5h1.36v2.88l-.22-.54c.33-.76.87-1.35,1.6-1.78.73-.44,1.61-.66,2.62-.66ZM188.57,31.1c-1,0-1.9-.23-2.7-.68-.79-.45-1.41-1.08-1.86-1.88-.45-.81-.68-1.75-.68-2.8s.23-2,.68-2.8c.45-.8,1.07-1.42,1.86-1.86.8-.45,1.7-.68,2.7-.68.92,0,1.74.21,2.46.62.73.41,1.31,1.02,1.74,1.82.44.79.66,1.75.66,2.9s-.21,2.1-.64,2.9c-.43.8-1.01,1.41-1.74,1.84-.72.41-1.55.62-2.48.62ZM188.67,29.84c.75,0,1.41-.17,2-.5.6-.35,1.07-.83,1.4-1.44.35-.63.52-1.35.52-2.16s-.17-1.55-.52-2.16c-.33-.61-.8-1.09-1.4-1.42-.59-.35-1.25-.52-2-.52s-1.39.17-1.98.52c-.59.33-1.05.81-1.4,1.42s-.52,1.33-.52,2.16.17,1.53.52,2.16c.35.61.81,1.09,1.4,1.44.59.33,1.25.5,1.98.5ZM192.63,31v-3.16l.14-2.12-.2-2.12v-7.44h1.42v14.84h-1.36ZM202.23,31.1c-1.01,0-1.93-.23-2.74-.68-.8-.47-1.43-1.1-1.9-1.9-.47-.81-.7-1.74-.7-2.78s.23-1.98.7-2.78c.47-.8,1.1-1.43,1.9-1.88s1.71-.68,2.74-.68,1.96.23,2.76.68c.81.45,1.45,1.08,1.9,1.88.47.8.7,1.73.7,2.78s-.23,1.97-.7,2.78c-.45.8-1.09,1.43-1.9,1.9-.81.45-1.73.68-2.76.68ZM202.23,29.84c.76,0,1.43-.17,2.02-.5.59-.35,1.05-.83,1.38-1.44.35-.63.52-1.35.52-2.16s-.17-1.55-.52-2.16c-.33-.61-.79-1.09-1.38-1.42-.59-.35-1.25-.52-2-.52s-1.41.17-2,.52c-.59.33-1.05.81-1.4,1.42s-.52,1.33-.52,2.16.17,1.53.52,2.16c.35.61.81,1.09,1.4,1.44.59.33,1.25.5,1.98.5ZM213.3,31.1c-.87,0-1.69-.12-2.46-.36-.77-.25-1.38-.57-1.82-.94l.64-1.12c.43.32.97.6,1.64.84.67.23,1.37.34,2.1.34,1,0,1.72-.15,2.16-.46.44-.32.66-.74.66-1.26,0-.39-.13-.69-.38-.9-.24-.23-.56-.39-.96-.5-.4-.12-.85-.22-1.34-.3-.49-.08-.99-.17-1.48-.28-.48-.11-.92-.26-1.32-.46-.4-.21-.73-.5-.98-.86-.24-.36-.36-.84-.36-1.44s.16-1.09.48-1.54c.32-.45.79-.81,1.4-1.06.63-.27,1.39-.4,2.28-.4.68,0,1.36.09,2.04.28.68.17,1.24.41,1.68.7l-.62,1.14c-.47-.32-.97-.55-1.5-.68-.53-.15-1.07-.22-1.6-.22-.95,0-1.65.17-2.1.5-.44.32-.66.73-.66,1.24,0,.4.12.71.36.94.25.23.58.41.98.54.41.12.86.22,1.34.3.49.08.98.18,1.46.3.49.11.94.26,1.34.46.41.19.74.46.98.82.25.35.38.81.38,1.38,0,.61-.17,1.15-.52,1.6-.33.44-.83.79-1.48,1.04-.64.24-1.42.36-2.34.36ZM224.71,31.1c-1.09,0-2.05-.23-2.88-.68-.83-.47-1.47-1.1-1.94-1.9-.47-.81-.7-1.74-.7-2.78s.22-1.96.66-2.76c.45-.8,1.07-1.43,1.84-1.88.79-.47,1.67-.7,2.64-.7s1.86.23,2.62.68c.77.44,1.38,1.07,1.82,1.88.44.8.66,1.73.66,2.78,0,.07,0,.14-.02.22v.22h-9.14v-1.06h8.38l-.56.42c0-.76-.17-1.43-.5-2.02-.32-.6-.76-1.07-1.32-1.4-.56-.33-1.21-.5-1.94-.5s-1.37.17-1.94.5c-.57.33-1.02.8-1.34,1.4-.32.6-.48,1.29-.48,2.06v.22c0,.8.17,1.51.52,2.12.36.6.85,1.07,1.48,1.42.64.33,1.37.5,2.18.5.64,0,1.23-.11,1.78-.34.56-.23,1.04-.57,1.44-1.04l.8.92c-.47.56-1.05.99-1.76,1.28-.69.29-1.46.44-2.3.44ZM80.56,55v-2.32l-.06-.38v-3.88c0-.89-.25-1.58-.76-2.06-.49-.48-1.23-.72-2.22-.72-.68,0-1.33.11-1.94.34-.61.23-1.13.53-1.56.9l-.64-1.06c.53-.45,1.17-.8,1.92-1.04.75-.25,1.53-.38,2.36-.38,1.36,0,2.41.34,3.14,1.02.75.67,1.12,1.69,1.12,3.06v6.52h-1.36ZM76.94,55.1c-.79,0-1.47-.13-2.06-.38-.57-.27-1.01-.63-1.32-1.08-.31-.47-.46-1-.46-1.6,0-.55.13-1.04.38-1.48.27-.45.69-.81,1.28-1.08.6-.28,1.4-.42,2.4-.42h3.62v1.06h-3.58c-1.01,0-1.72.18-2.12.54-.39.36-.58.81-.58,1.34,0,.6.23,1.08.7,1.44.47.36,1.12.54,1.96.54s1.49-.18,2.06-.54c.59-.37,1.01-.91,1.28-1.6l.32.98c-.27.69-.73,1.25-1.4,1.66-.65.41-1.48.62-2.48.62ZM96.83,55.16c-.91,0-1.7-.2-2.38-.6-.68-.4-1.21-1.01-1.6-1.82-.37-.83-.56-1.87-.56-3.12s.18-2.31.54-3.12.88-1.42,1.56-1.82c.68-.4,1.49-.6,2.44-.6,1.01,0,1.92.23,2.72.7.81.45,1.45,1.09,1.92,1.92.48.83.72,1.8.72,2.92s-.24,2.11-.72,2.94c-.47.83-1.11,1.47-1.92,1.92-.8.45-1.71.68-2.72.68ZM90.47,58.88v-14.64h2.98v2.2l-.06,3.2.2,3.18v6.06h-3.12ZM96.29,52.6c.52,0,.98-.12,1.38-.36.41-.24.74-.58.98-1.02.25-.45.38-.99.38-1.6s-.13-1.16-.38-1.6c-.24-.44-.57-.78-.98-1.02-.4-.24-.86-.36-1.38-.36s-.99.12-1.4.36c-.41.24-.74.58-.98,1.02s-.36.97-.36,1.6.12,1.15.36,1.6c.24.44.57.78.98,1.02.41.24.88.36,1.4.36ZM104.28,55v-14.84h3.12v14.84h-3.12ZM116.89,55v-2.1l-.2-.46v-3.76c0-.67-.21-1.19-.62-1.56-.4-.37-1.02-.56-1.86-.56-.57,0-1.14.09-1.7.28-.55.17-1.01.41-1.4.72l-1.12-2.18c.59-.41,1.29-.73,2.12-.96.83-.23,1.67-.34,2.52-.34,1.64,0,2.91.39,3.82,1.16.91.77,1.36,1.98,1.36,3.62v6.14h-2.92ZM113.61,55.16c-.84,0-1.56-.14-2.16-.42-.6-.29-1.06-.69-1.38-1.18-.32-.49-.48-1.05-.48-1.66s.15-1.2.46-1.68c.32-.48.82-.85,1.5-1.12.68-.28,1.57-.42,2.66-.42h2.86v1.82h-2.52c-.73,0-1.24.12-1.52.36-.27.24-.4.54-.4.9,0,.4.15.72.46.96.32.23.75.34,1.3.34s.99-.12,1.4-.36c.41-.25.71-.62.9-1.1l.48,1.44c-.23.69-.64,1.22-1.24,1.58-.6.36-1.37.54-2.32.54ZM129.18,44.08c.85,0,1.61.17,2.28.52.68.33,1.21.85,1.6,1.56.39.69.58,1.59.58,2.68v6.16h-3.12v-5.68c0-.87-.19-1.51-.58-1.92-.37-.41-.91-.62-1.6-.62-.49,0-.94.11-1.34.32-.39.2-.69.51-.92.94-.21.43-.32.97-.32,1.64v5.32h-3.12v-10.76h2.98v2.98l-.56-.9c.39-.72.94-1.27,1.66-1.66s1.54-.58,2.46-.58ZM140.87,55.16c-1.27,0-2.25-.32-2.96-.96-.71-.65-1.06-1.62-1.06-2.9v-9.44h3.12v9.4c0,.45.12.81.36,1.06.24.24.57.36.98.36.49,0,.91-.13,1.26-.4l.84,2.2c-.32.23-.71.4-1.16.52-.44.11-.9.16-1.38.16ZM135.19,46.88v-2.4h7.46v2.4h-7.46ZM151.76,55v-2.1l-.2-.46v-3.76c0-.67-.21-1.19-.62-1.56-.4-.37-1.02-.56-1.86-.56-.57,0-1.14.09-1.7.28-.55.17-1.01.41-1.4.72l-1.12-2.18c.59-.41,1.29-.73,2.12-.96.83-.23,1.67-.34,2.52-.34,1.64,0,2.91.39,3.82,1.16.91.77,1.36,1.98,1.36,3.62v6.14h-2.92ZM148.48,55.16c-.84,0-1.56-.14-2.16-.42-.6-.29-1.06-.69-1.38-1.18-.32-.49-.48-1.05-.48-1.66s.15-1.2.46-1.68c.32-.48.82-.85,1.5-1.12.68-.28,1.57-.42,2.66-.42h2.86v1.82h-2.52c-.73,0-1.24.12-1.52.36-.27.24-.4.54-.4.9,0,.4.15.72.46.96.32.23.75.34,1.3.34s.99-.12,1.4-.36c.41-.25.71-.62.9-1.1l.48,1.44c-.23.69-.64,1.22-1.24,1.58-.6.36-1.37.54-2.32.54Z"/>
    </g>
  </g>
</svg>